<svg xmlns="http://www.w3.org/2000/svg" width="340" height="48" viewBox="0 0 340 48" fill="none">
  <polygon points="22,10 33,17 33,31 22,38 11,31 11,17" fill="none" stroke="#3b82f6" stroke-width="1.5"/>
  <polygon points="22,14 30,19 30,29 22,34 14,29 14,19" fill="#3b82f6" opacity="0.15"/>
  <circle cx="22" cy="24" r="3" fill="#3b82f6"/>
  <polygon points="37,4 46,9 46,17 37,22 28,17 28,9" fill="none" stroke="#60a5fa" stroke-width="1"/>
  <circle cx="37" cy="13" r="1.8" fill="#60a5fa"/>
  <polygon points="37,26 46,31 46,39 37,44 28,39 28,31" fill="none" stroke="#60a5fa" stroke-width="1"/>
  <circle cx="37" cy="35" r="1.8" fill="#60a5fa"/>
  <line x1="33" y1="19" x2="28" y2="13" stroke="#3b82f6" stroke-width="1" opacity="0.6"/>
  <line x1="33" y1="29" x2="28" y2="31" stroke="#3b82f6" stroke-width="1" opacity="0.6"/>
  <line x1="37" y1="22" x2="37" y2="26" stroke="#60a5fa" stroke-width="0.8" opacity="0.5"/>
  <text x="58" y="34" font-family="Inter, system-ui, sans-serif" font-weight="700" font-size="28" fill="#f8f9fc" letter-spacing="-0.5">IBS</text>
  <rect x="104" y="8" width="1" height="32" fill="#2c2e38"/>
  <text x="116" y="15" font-family="ui-monospace, monospace" font-size="8.5" fill="#8a8f9e" letter-spacing="2">INNOVATIVE</text>
  <text x="116" y="27" font-family="ui-monospace, monospace" font-size="8.5" fill="#8a8f9e" letter-spacing="2">BLOCKCHAIN</text>
  <text x="116" y="39" font-family="ui-monospace, monospace" font-size="8.5" fill="#8a8f9e" letter-spacing="2">SOLUTIONS</text>
</svg>
